<?xml version="1.0" encoding="utf-8"?>
<svg id="master-artboard" viewBox="0 0 1400 980" version="1.1" xmlns="http://www.w3.org/2000/svg" x="0px" y="0px" style="enable-background:new 0 0 1400 980;" width="1400px" height="980px"><rect id="ee-background" x="0" y="0" width="1400" height="980" style="fill: rgb(252, 255, 253); fill-opacity: 0; pointer-events: none;"/><defs><style id="ee-google-fonts">@import url(https://fonts.googleapis.com/css?family=Roboto:100,100italic,300,300italic,400,400italic,500,500italic,700,700italic,900,900italic);</style></defs>























































































































<path d="M 260.79998779296875 86.19999694824219" style="fill: rgb(23, 168, 247); fill-opacity: 1; stroke: rgb(0, 0, 0); stroke-opacity: 1; stroke-width: 0; paint-order: fill;" transform="matrix(1, 0, 0, 1, 20.4764404296875, 31.397216796875)"/><g transform="matrix(5.265137672424316, 0, 0, 5.265137672424316, -20.476481364343726, 61.89382225417411)"><g>
	<path class="st0" d="M 81.1 14.1 L 73.1 14.1 L 73.1 34.9 L 69.3 34.9 L 69.3 14.1 L 61.199999999999996 14.1 L 61.199999999999996 10.7 L 81.1 10.7 L 81.1 14.1 Z" style="fill: rgb(255, 255, 255);"/>
	<path class="st0" d="M 103.4 34.9 L 103.4 10.7 L 113.9 10.7 C 115 10.7 116 10.899999999999999 116.9 11.399999999999999 C 117.80000000000001 11.899999999999999 118.60000000000001 12.399999999999999 119.30000000000001 13.2 C 120.00000000000001 13.899999999999999 120.50000000000001 14.799999999999999 120.80000000000001 15.7 C 121.20000000000002 16.599999999999998 121.4 17.599999999999998 121.4 18.599999999999998 C 121.4 19.4 121.30000000000001 20.2 121.10000000000001 20.9 C 120.9 21.599999999999998 120.60000000000001 22.299999999999997 120.10000000000001 23 C 119.7 23.6 119.2 24.2 118.60000000000001 24.6 C 118.00000000000001 25.1 117.4 25.400000000000002 116.7 25.6 L 122.4 34.8 L 118 34.8 L 112.8 26.4 L 107.2 26.4 L 107.2 34.8 L 103.4 34.8 L 103.4 34.9 Z M 107.2 23.1 L 113.9 23.1 C 114.4 23.1 114.9 23 115.4 22.700000000000003 C 115.80000000000001 22.500000000000004 116.2 22.1 116.5 21.700000000000003 C 116.8 21.300000000000004 117.1 20.800000000000004 117.2 20.300000000000004 C 117.4 19.800000000000004 117.5 19.200000000000003 117.5 18.600000000000005 C 117.5 18.000000000000004 117.4 17.400000000000006 117.2 16.900000000000006 C 117 16.400000000000006 116.7 15.900000000000006 116.4 15.500000000000005 C 116 15.100000000000005 115.60000000000001 14.800000000000006 115.2 14.500000000000005 C 114.7 14.300000000000006 114.3 14.100000000000005 113.8 14.100000000000005 L 107.3 14.100000000000005 L 107.3 23.1 L 107.2 23.1 Z" style="fill: rgb(255, 255, 255);"/>
	<path class="st0" d="M 153.6 31.6 C 154.9 31.6 155.9 31.400000000000002 156.79999999999998 30.900000000000002 C 157.6 30.400000000000002 158.29999999999998 29.8 158.79999999999998 28.900000000000002 C 159.29999999999998 28.1 159.7 27.200000000000003 159.89999999999998 26.1 C 160.09999999999997 25.1 160.2 24 160.2 22.900000000000002 L 160.2 10.7 L 164 10.7 L 164 23 C 164 24.7 163.8 26.2 163.4 27.7 C 163 29.2 162.4 30.4 161.6 31.5 C 160.79999999999998 32.6 159.7 33.5 158.4 34.1 C 157.1 34.7 155.5 35.1 153.6 35.1 C 151.7 35.1 150 34.800000000000004 148.7 34.1 C 147.39999999999998 33.4 146.29999999999998 32.5 145.5 31.400000000000002 C 144.7 30.3 144.1 29.000000000000004 143.7 27.500000000000004 C 143.29999999999998 26.000000000000004 143.2 24.500000000000004 143.2 23.000000000000004 L 143.2 10.7 L 147 10.7 L 147 23 C 147 24.1 147.1 25.2 147.3 26.2 C 147.5 27.2 147.9 28.099999999999998 148.4 29 C 148.9 29.8 149.6 30.5 150.4 30.9 C 151.3 31.4 152.4 31.6 153.6 31.6 Z" style="fill: rgb(255, 255, 255);"/>
	<path class="st0" d="M 204.7 31.5 L 204.7 34.9 L 188.1 34.9 L 188.1 10.7 L 204.4 10.7 L 204.4 14.1 L 192 14.1 L 192 21 L 202.8 21 L 202.8 24.2 L 192 24.2 L 192 31.6 L 204.7 31.6 L 204.7 31.5 Z" style="fill: rgb(255, 255, 255);"/>
	<path class="st0" d="M 56.3 102.1 L 56.3 73.7 L 47.3 93.7 L 39.4 93.7 L 30.4 73.7 L 30.4 102.1 L 15.5 102.1 L 15.5 48.099999999999994 L 31.7 48.099999999999994 L 43.3 73.5 L 55 48.1 L 71.1 48.1 L 71.1 102.1 L 56.3 102.1 Z" style="fill: rgb(255, 255, 255);"/>
	<path class="st0" d="M 104 89.4 C 105.7 89.4 107.2 89 108.4 88.30000000000001 C 109.60000000000001 87.50000000000001 110.60000000000001 86.50000000000001 111.4 85.30000000000001 C 112.2 84.10000000000001 112.7 82.60000000000001 113.10000000000001 81.00000000000001 C 113.50000000000001 79.40000000000002 113.60000000000001 77.70000000000002 113.60000000000001 75.90000000000002 L 113.60000000000001 48.1 L 128.4 48.1 L 128.4 75.8 C 128.4 79.6 127.9 83.1 127 86.3 C 126 89.6 124.5 92.39999999999999 122.5 94.8 C 120.5 97.2 117.9 99.1 114.9 100.39999999999999 C 111.80000000000001 101.8 108.2 102.49999999999999 104.10000000000001 102.49999999999999 C 99.80000000000001 102.49999999999999 96.10000000000001 101.79999999999998 93.00000000000001 100.29999999999998 C 89.90000000000002 98.89999999999998 87.40000000000002 96.89999999999998 85.40000000000002 94.49999999999999 C 83.40000000000002 92.09999999999998 82.00000000000001 89.19999999999999 81.10000000000002 85.99999999999999 C 80.20000000000002 82.79999999999998 79.70000000000002 79.39999999999999 79.70000000000002 75.79999999999998 L 79.70000000000002 48.1 L 94.50000000000001 48.1 L 94.50000000000001 75.8 C 94.50000000000001 77.6 94.70000000000002 79.3 95.00000000000001 80.89999999999999 C 95.40000000000002 82.49999999999999 95.90000000000002 83.99999999999999 96.70000000000002 85.19999999999999 C 97.50000000000001 86.39999999999999 98.40000000000002 87.39999999999999 99.60000000000002 88.19999999999999 C 100.8 89 102.3 89.4 104 89.4 Z" style="fill: rgb(255, 255, 255);"/>
	<path class="st0" d="M 169.6 65.8 C 168.1 64.89999999999999 166.5 64.1 164.9 63.4 C 163.5 62.8 162 62.199999999999996 160.3 61.699999999999996 C 158.60000000000002 61.199999999999996 156.9 60.9 155.3 60.9 C 154 60.9 152.9 61.1 152.10000000000002 61.5 C 151.3 61.9 150.90000000000003 62.6 150.90000000000003 63.6 C 150.90000000000003 64.3 151.10000000000002 64.9 151.60000000000002 65.3 C 152.10000000000002 65.69999999999999 152.70000000000002 66.2 153.60000000000002 66.6 C 154.50000000000003 67 155.50000000000003 67.3 156.8 67.69999999999999 C 158 68.1 159.4 68.49999999999999 161 68.99999999999999 C 163.5 69.79999999999998 165.7 70.59999999999998 167.7 71.49999999999999 C 169.7 72.39999999999999 171.39999999999998 73.49999999999999 172.79999999999998 74.69999999999999 C 174.2 75.89999999999999 175.29999999999998 77.39999999999999 176.1 79.19999999999999 C 176.9 80.99999999999999 177.2 83.1 177.2 85.69999999999999 C 177.2 88.89999999999999 176.6 91.69999999999999 175.39999999999998 93.89999999999999 C 174.2 96.1 172.59999999999997 97.89999999999999 170.7 99.19999999999999 C 168.7 100.49999999999999 166.5 101.49999999999999 164.1 102.1 C 161.6 102.69999999999999 159.2 103 156.7 103 C 154.7 103 152.7 102.8 150.6 102.5 C 148.5 102.2 146.5 101.8 144.4 101.2 C 142.3 100.60000000000001 140.4 100 138.5 99.2 C 136.6 98.4 134.8 97.60000000000001 133.2 96.60000000000001 L 139.6 83.60000000000001 C 141.4 84.7 143.2 85.7 145.1 86.60000000000001 C 146.7 87.4 148.6 88.00000000000001 150.6 88.7 C 152.7 89.3 154.7 89.60000000000001 156.9 89.60000000000001 C 158.5 89.60000000000001 159.6 89.4 160.3 89.00000000000001 C 160.9 88.60000000000001 161.3 88.00000000000001 161.3 87.30000000000001 C 161.3 86.50000000000001 161 85.9 160.3 85.4 C 159.70000000000002 84.9 158.8 84.4 157.70000000000002 84 C 156.60000000000002 83.6 155.3 83.2 153.9 82.8 C 152.5 82.39999999999999 150.9 81.89999999999999 149.3 81.39999999999999 C 146.9 80.6 144.9 79.69999999999999 143.10000000000002 78.8 C 141.40000000000003 77.89999999999999 140.00000000000003 76.8 138.8 75.6 C 137.70000000000002 74.39999999999999 136.9 73.1 136.3 71.5 C 135.8 70 135.5 68.2 135.5 66.3 C 135.5 63.3 136 60.699999999999996 137.1 58.4 C 138.2 56.1 139.7 54.199999999999996 141.5 52.699999999999996 C 143.4 51.199999999999996 145.5 49.99999999999999 147.9 49.199999999999996 C 150.3 48.4 152.9 47.99999999999999 155.5 47.99999999999999 C 157.5 47.99999999999999 159.4 48.199999999999996 161.3 48.599999999999994 C 163.20000000000002 48.99999999999999 165 49.49999999999999 166.70000000000002 49.99999999999999 C 168.4 50.599999999999994 170.10000000000002 51.199999999999996 171.60000000000002 51.89999999999999 C 173.10000000000002 52.59999999999999 174.50000000000003 53.19999999999999 175.70000000000002 53.79999999999999 L 169.6 65.8 Z" style="fill: rgb(255, 255, 255);"/>
	<path class="st0" d="M 183.8 102.1 L 183.8 48.099999999999994 L 198.60000000000002 48.099999999999994 L 198.60000000000002 102.1 L 183.8 102.1 Z" style="fill: rgb(255, 255, 255);"/>
	<path class="st0" d="M 204.9 74.6 C 204.9 71.3 205.5 68.1 206.8 64.89999999999999 C 208 61.69999999999999 209.9 58.79999999999999 212.20000000000002 56.29999999999999 C 214.60000000000002 53.79999999999999 217.50000000000003 51.69999999999999 220.9 50.09999999999999 C 224.3 48.499999999999986 228.20000000000002 47.69999999999999 232.5 47.69999999999999 C 237.7 47.69999999999999 242.2 48.79999999999999 246.1 50.89999999999999 C 249.9 53.099999999999994 252.79999999999998 55.89999999999999 254.6 59.49999999999999 L 243.29999999999998 67.6 C 242.79999999999998 66.3 242.1 65.19999999999999 241.29999999999998 64.3 C 240.49999999999997 63.4 239.49999999999997 62.8 238.49999999999997 62.199999999999996 C 237.49999999999997 61.699999999999996 236.39999999999998 61.3 235.29999999999998 61.099999999999994 C 234.2 60.89999999999999 233.2 60.8 232.1 60.8 C 230 60.8 228.1 61.199999999999996 226.6 62.099999999999994 C 225.1 62.89999999999999 223.79999999999998 63.99999999999999 222.79999999999998 65.39999999999999 C 221.79999999999998 66.69999999999999 221.1 68.3 220.6 69.99999999999999 C 220.1 71.69999999999999 219.9 73.39999999999999 219.9 75.09999999999998 C 219.9 76.99999999999999 220.20000000000002 78.79999999999998 220.70000000000002 80.49999999999999 C 221.3 82.19999999999999 222.10000000000002 83.69999999999999 223.10000000000002 85.09999999999998 C 224.20000000000002 86.39999999999998 225.50000000000003 87.49999999999999 227.00000000000003 88.29999999999998 C 228.50000000000003 89.09999999999998 230.30000000000004 89.49999999999999 232.20000000000002 89.49999999999999 C 233.20000000000002 89.49999999999999 234.3 89.39999999999999 235.3 89.19999999999999 C 236.3 88.99999999999999 237.4 88.6 238.4 88.1 C 239.4 87.6 240.3 86.89999999999999 241.1 86 C 241.9 85.2 242.5 84.1 243 82.9 L 255.1 90.10000000000001 C 254.29999999999998 92.10000000000001 253.1 93.9 251.4 95.4 C 249.8 97 247.9 98.30000000000001 245.8 99.4 C 243.70000000000002 100.5 241.4 101.30000000000001 239 101.80000000000001 C 236.6 102.4 234.2 102.60000000000001 232 102.60000000000001 C 228 102.60000000000001 224.3 101.80000000000001 221 100.2 C 217.7 98.60000000000001 214.8 96.5 212.4 93.9 C 210 91.30000000000001 208.1 88.30000000000001 206.8 84.9 C 205.6 81.5 204.9 78.1 204.9 74.6 Z" style="fill: rgb(255, 255, 255);"/>
	
	
	
	
	
	
	
	
	
	
	
<path d="M 55.05590057373047 125.74858856201172 L 56.35225296020508 126.26713562011719" style="fill: rgb(255, 255, 255); fill-opacity: 1; stroke: rgb(0, 0, 0); stroke-opacity: 1; stroke-width: 0; paint-order: fill;"/></g></g></svg>